# xmcd
#
# Track frame offsets: 
#        150
#        22829
#        45528
#        58827
#        69104
#        90373
#        106716
#        122776
#        159611
#        171242
#        208441
#        226114
#        235007
#        252954
#        287239
#        299374
#
# Disc length: 4474 seconds
#
# Revision: 1
# Processed by: cddbd v1.5.2PL0 Copyright (c) Steve Scherf et al.
# Submitted via: ExactAudioCopy v0.99pb5
#
DISCID=d8117810
DTITLE=Oscar Peterson - The Soul Of Oscar Peterson - CD2
DYEAR=2008
DGENRE=Jazz
TTITLE0=7 Come 11
TTITLE1=Tenderly
TTITLE2=Carioca
TTITLE3=Over The Rainbow
TTITLE4=Pompton Turnpike
TTITLE5=Surrey With The Fringe On Top
TTITLE6=Blues For Basie
TTITLE7=Love You Madly
TTITLE8=Love Me Or Leave Me
TTITLE9=Desert Sands
TTITLE10=The Man I Love
TTITLE11=Goody Goody
TTITLE12=When Lights Are Low
TTITLE13=I Want To Be Happy
TTITLE14=What's New
TTITLE15=Soulville
EXTD=YEAR: 2008
EXTT0=
EXTT1=
EXTT2=
EXTT3=
EXTT4=
EXTT5=
EXTT6=
EXTT7=
EXTT8=
EXTT9=
EXTT10=
EXTT11=
EXTT12=
EXTT13=
EXTT14=
EXTT15=
PLAYORDER=
